<svg width="133" height="32" viewBox="0 0 133 32" fill="none" xmlns="http://www.w3.org/2000/svg">
<g clip-path="url(#clip0_17308_31830)">
<path d="M25.044 0.539062L30.5 0.5L11.8037 20.3964H16.8476H22.851V24.587H0.996094L25.044 0.539062Z" fill="#151515"/>
<path d="M29.5686 23.9955L27.0438 27.104V8.56138L16.113 19.5049H12.4308L29.5686 1.50288V23.9955Z" fill="white"/>
<path d="M1.08062 28.4331V24.9411H23.0862V14.0887L25.9378 11.2337V28.4331H1.08062Z" fill="white"/>
<path fill-rule="evenodd" clip-rule="evenodd" d="M27.0438 8.56138V27.104L29.5686 23.9955V1.50288L12.4308 19.5049H16.113L27.0438 8.56138ZM17.6763 19.5049H21.9802V15.196L17.6763 19.5049ZM23.0862 14.0887V24.9411H1.08062V28.4331H25.9378V11.2337L23.0862 14.0887ZM26.4908 29.5391H-0.0253906V24.3881L24.7947 -0.460938H30.6746V24.3881L26.4908 29.5391ZM28.8582 0.645073L9.85083 20.6109H21.9802V23.8351H2.09019L25.2532 0.645073H28.8582Z" fill="#151515"/>
</g>
<path d="M46.3455 13.0819C45.5355 13.0819 44.7905 12.9419 44.1105 12.6619C43.4305 12.3719 42.8455 11.9769 42.3555 11.4769C41.8755 10.9769 41.4955 10.3869 41.2155 9.70687C40.9455 9.02687 40.8105 8.29187 40.8105 7.50187C40.8105 6.71187 40.9455 5.97687 41.2155 5.29687C41.4955 4.61687 41.8755 4.02688 42.3555 3.52687C42.8455 3.02687 43.4305 2.63687 44.1105 2.35687C44.7905 2.06687 45.5355 1.92188 46.3455 1.92188C47.1555 1.92188 47.9005 2.06687 48.5805 2.35687C49.2605 2.63687 49.8405 3.02687 50.3205 3.52687C50.8105 4.02688 51.1905 4.61687 51.4605 5.29687C51.7405 5.97687 51.8805 6.71187 51.8805 7.50187C51.8805 8.29187 51.7405 9.02687 51.4605 9.70687C51.1905 10.3869 50.8105 10.9769 50.3205 11.4769C49.8405 11.9769 49.2605 12.3719 48.5805 12.6619C47.9005 12.9419 47.1555 13.0819 46.3455 13.0819ZM46.3455 11.7319C46.9555 11.7319 47.5055 11.6219 47.9955 11.4019C48.4855 11.1719 48.9055 10.8669 49.2555 10.4869C49.6055 10.1069 49.8755 9.66188 50.0655 9.15188C50.2555 8.63188 50.3505 8.08187 50.3505 7.50187C50.3505 6.92187 50.2555 6.37687 50.0655 5.86687C49.8755 5.34687 49.6055 4.89687 49.2555 4.51687C48.9055 4.13687 48.4855 3.83687 47.9955 3.61687C47.5055 3.38687 46.9555 3.27187 46.3455 3.27187C45.7355 3.27187 45.1855 3.38687 44.6955 3.61687C44.2055 3.83687 43.7855 4.13687 43.4355 4.51687C43.0855 4.89687 42.8155 5.34687 42.6255 5.86687C42.4355 6.37687 42.3405 6.92187 42.3405 7.50187C42.3405 8.08187 42.4355 8.63188 42.6255 9.15188C42.8155 9.66188 43.0855 10.1069 43.4355 10.4869C43.7855 10.8669 44.2055 11.1719 44.6955 11.4019C45.1855 11.6219 45.7355 11.7319 46.3455 11.7319Z" fill="#151515"/>
<path d="M55.951 2.19188H57.841L63.691 10.9219H63.721V2.19188H65.161V12.8119H63.331L57.421 4.08187H57.391V12.8119H55.951V2.19188Z" fill="#151515"/>
<path d="M69.8895 2.19188H73.6245C74.3045 2.19188 74.8645 2.28688 75.3045 2.47688C75.7445 2.65688 76.0895 2.89188 76.3395 3.18187C76.5995 3.46187 76.7795 3.78187 76.8795 4.14188C76.9795 4.49187 77.0295 4.83187 77.0295 5.16187C77.0295 5.50187 76.9695 5.83187 76.8495 6.15187C76.7295 6.46187 76.5545 6.74688 76.3245 7.00688C76.1045 7.25688 75.8295 7.47187 75.4995 7.65188C75.1795 7.82187 74.8195 7.92687 74.4195 7.96688L77.4345 12.8119H75.6345L72.9345 8.13188H71.3295V12.8119H69.8895V2.19188ZM71.3295 6.87187H73.2195C73.4995 6.87187 73.7745 6.85187 74.0445 6.81187C74.3245 6.76187 74.5695 6.67687 74.7795 6.55687C74.9995 6.43687 75.1745 6.26687 75.3045 6.04687C75.4345 5.81687 75.4995 5.52187 75.4995 5.16187C75.4995 4.80187 75.4345 4.51188 75.3045 4.29187C75.1745 4.06187 74.9995 3.88687 74.7795 3.76687C74.5695 3.64687 74.3245 3.56687 74.0445 3.52687C73.7745 3.47687 73.4995 3.45187 73.2195 3.45187H71.3295V6.87187Z" fill="#151515"/>
<path d="M93.5159 2.19188H95.6609L99.0359 10.2319H99.0959L102.441 2.19188H104.586V12.8119H103.146V4.08187H103.116L99.5309 12.8119H98.5709L94.9859 4.08187H94.9559V12.8119H93.5159V2.19188Z" fill="#151515"/>
<path d="M109.215 2.19188H112.95C113.63 2.19188 114.19 2.28688 114.63 2.47688C115.07 2.65688 115.415 2.89188 115.665 3.18187C115.925 3.46187 116.105 3.78187 116.205 4.14188C116.305 4.49187 116.355 4.83187 116.355 5.16187C116.355 5.49187 116.305 5.83687 116.205 6.19688C116.105 6.54688 115.925 6.86687 115.665 7.15688C115.415 7.43688 115.07 7.67188 114.63 7.86188C114.19 8.04188 113.63 8.13188 112.95 8.13188H110.655V12.8119H109.215V2.19188ZM110.655 6.87187H112.545C112.825 6.87187 113.1 6.85187 113.37 6.81187C113.65 6.76187 113.895 6.67687 114.105 6.55687C114.325 6.43687 114.5 6.26687 114.63 6.04687C114.76 5.81687 114.825 5.52187 114.825 5.16187C114.825 4.80187 114.76 4.51188 114.63 4.29187C114.5 4.06187 114.325 3.88687 114.105 3.76687C113.895 3.64687 113.65 3.56687 113.37 3.52687C113.1 3.47687 112.825 3.45187 112.545 3.45187H110.655V6.87187Z" fill="#151515"/>
<path d="M84.3894 2.19188H85.6944L90.2394 12.8119H88.5594L86.9694 8.92688L84.9894 4.05187H84.9594L81.3894 12.8119H79.7094L84.3894 2.19188Z" fill="#151515"/>
<path d="M40.4175 25.9155C40.4175 25.6208 40.5171 25.3738 40.7165 25.1745C40.9158 24.9752 41.1715 24.8755 41.4835 24.8755C41.7955 24.8755 42.0555 24.9752 42.2635 25.1745C42.4715 25.3738 42.5755 25.6208 42.5755 25.9155C42.5755 26.2058 42.4715 26.4485 42.2635 26.6435C42.0555 26.8342 41.7955 26.9295 41.4835 26.9295C41.1715 26.9295 40.9158 26.832 40.7165 26.637C40.5171 26.442 40.4175 26.2015 40.4175 25.9155ZM52.6744 26.8125V23.1205C52.6744 22.6525 52.5618 22.2993 52.3364 22.061C52.1111 21.8227 51.8164 21.7035 51.4524 21.7035C50.9931 21.7035 50.6313 21.8898 50.3669 22.2625C50.1026 22.6352 49.9704 23.1985 49.9704 23.9525H49.3334C49.3334 23.2895 49.3941 22.7283 49.5154 22.269C49.6411 21.8053 49.8166 21.4327 50.0419 21.151C50.2716 20.865 50.5403 20.657 50.8479 20.527C51.1556 20.3927 51.4958 20.3255 51.8684 20.3255C52.3841 20.3255 52.8153 20.4425 53.1619 20.6765C53.5129 20.9062 53.7773 21.2312 53.9549 21.6515C54.1326 22.0718 54.2214 22.5615 54.2214 23.1205V26.8125H52.6744ZM44.1074 26.8125V20.5075H45.4464L45.6154 21.5865C45.8234 21.1662 46.0986 20.852 46.4409 20.644C46.7833 20.4317 47.1754 20.3255 47.6174 20.3255C48.1374 20.3255 48.5708 20.4425 48.9174 20.6765C49.2684 20.9062 49.5306 21.2312 49.7039 21.6515C49.8816 22.0718 49.9704 22.5615 49.9704 23.1205V26.8125H48.4364V23.1205C48.4364 22.6525 48.3238 22.2993 48.0984 22.061C47.8731 21.8227 47.5784 21.7035 47.2144 21.7035C46.9068 21.7035 46.6338 21.788 46.3954 21.957C46.1614 22.126 45.9773 22.3817 45.8429 22.724C45.7086 23.062 45.6414 23.4845 45.6414 23.9915V26.8125H44.1074ZM58.9303 26.9945C58.3539 26.9945 57.8318 26.871 57.3638 26.624C56.9001 26.377 56.5318 26.0087 56.2588 25.519C55.9858 25.025 55.8493 24.4075 55.8493 23.6665C55.8493 22.9125 55.9858 22.2885 56.2588 21.7945C56.5318 21.3005 56.9001 20.9322 57.3638 20.6895C57.8318 20.4468 58.3539 20.3255 58.9303 20.3255C59.4979 20.3255 60.0114 20.4468 60.4708 20.6895C60.9344 20.9322 61.3028 21.3005 61.5758 21.7945C61.8488 22.2885 61.9853 22.9125 61.9853 23.6665C61.9853 24.4075 61.8488 25.025 61.5758 25.519C61.3028 26.0087 60.9344 26.377 60.4708 26.624C60.0114 26.871 59.4979 26.9945 58.9303 26.9945ZM58.8783 25.6555C59.1816 25.6555 59.4503 25.5818 59.6843 25.4345C59.9226 25.2828 60.1089 25.0597 60.2433 24.765C60.3819 24.4703 60.4513 24.1042 60.4513 23.6665C60.4513 22.9992 60.3191 22.4965 60.0548 22.1585C59.7948 21.8205 59.4373 21.6515 58.9823 21.6515C58.6746 21.6515 58.4016 21.7273 58.1633 21.879C57.9249 22.0263 57.7364 22.2495 57.5978 22.5485C57.4634 22.8475 57.3963 23.2202 57.3963 23.6665C57.3963 24.3252 57.5284 24.8213 57.7928 25.155C58.0614 25.4887 58.4233 25.6555 58.8783 25.6555ZM68.1396 26.8125V23.1205C68.1396 22.6525 68.0269 22.2993 67.8016 22.061C67.5762 21.8227 67.2816 21.7035 66.9176 21.7035C66.6099 21.7035 66.3369 21.788 66.0986 21.957C65.8646 22.126 65.6804 22.3817 65.5461 22.724C65.4117 23.062 65.3446 23.4845 65.3446 23.9915H64.8376C64.8376 23.1725 64.9394 22.4922 65.1431 21.9505C65.3467 21.4045 65.6349 20.9972 66.0076 20.7285C66.3802 20.4598 66.8179 20.3255 67.3206 20.3255C67.8406 20.3255 68.2739 20.4425 68.6206 20.6765C68.9716 20.9062 69.2337 21.2312 69.4071 21.6515C69.5847 22.0718 69.6736 22.5615 69.6736 23.1205V26.8125H68.1396ZM63.8106 26.8125V20.5075H65.1496L65.3446 21.7555V26.8125H63.8106ZM74.2632 26.9945C73.7258 26.9945 73.234 26.8558 72.7877 26.5785C72.3413 26.3012 71.9838 25.9133 71.7152 25.415C71.4465 24.9123 71.3122 24.3252 71.3122 23.6535C71.3122 22.9602 71.4443 22.3643 71.7087 21.866C71.9773 21.3677 72.3348 20.9863 72.7812 20.722C73.2275 20.4577 73.7215 20.3255 74.2632 20.3255C74.7658 20.3255 75.1992 20.4273 75.5632 20.631C75.9315 20.8303 76.2262 21.1033 76.4472 21.45C76.6725 21.7923 76.8242 22.1802 76.9022 22.6135C76.9802 23.0468 76.9845 23.4932 76.9152 23.9525H72.5342V23.1205H75.8297L75.5307 23.3155C75.5437 23.1118 75.5328 22.906 75.4982 22.698C75.4678 22.49 75.4072 22.2993 75.3162 22.126C75.2252 21.9527 75.0952 21.814 74.9262 21.71C74.7615 21.6017 74.5492 21.5475 74.2892 21.5475C73.9772 21.5475 73.7128 21.6255 73.4962 21.7815C73.2795 21.9375 73.1148 22.1498 73.0022 22.4185C72.8895 22.6872 72.8332 22.9905 72.8332 23.3285V23.9395C72.8332 24.2948 72.8852 24.609 72.9892 24.882C73.0975 25.155 73.2557 25.3695 73.4637 25.5255C73.676 25.6815 73.9425 25.7595 74.2632 25.7595C74.5622 25.7595 74.8135 25.6902 75.0172 25.5515C75.2208 25.4128 75.3508 25.2048 75.4072 24.9275H76.9542C76.8892 25.3348 76.7353 25.6945 76.4927 26.0065C76.2543 26.3142 75.9445 26.5568 75.5632 26.7345C75.1818 26.9078 74.7485 26.9945 74.2632 26.9945ZM77.8417 20.5075H79.5837L81.2607 25.4735H80.9877L82.4307 20.5075H83.9907L81.5727 27.9565C81.3257 28.7018 81.0202 29.2413 80.6562 29.575C80.2966 29.9087 79.8567 30.0755 79.3367 30.0755C79.0377 30.0755 78.7452 30.0408 78.4592 29.9715C78.1776 29.9065 77.8894 29.8025 77.5947 29.6595V28.3075C77.8331 28.4548 78.0627 28.5632 78.2837 28.6325C78.5091 28.7018 78.7344 28.7365 78.9597 28.7365C79.1634 28.7365 79.3411 28.6802 79.4927 28.5675C79.6487 28.4592 79.7831 28.3053 79.8957 28.106C80.0084 27.911 80.1037 27.6835 80.1817 27.4235L80.3767 26.8125L77.8417 20.5075Z" fill="#2C5BFF"/>
<defs>
<clipPath id="clip0_17308_31830">
<rect width="39" height="30" fill="white"/>
</clipPath>
</defs>
</svg>
