<svg width="1200" height="324" viewBox="0 0 1200 324" fill="none" xmlns="http://www.w3.org/2000/svg">
<path d="M0 9.8501H63.6799C94.5399 9.8501 108.15 25.1501 108.15 43.1301C108.15 56.7801 100.98 66.5301 90.73 70.7501C100.32 74.1601 111.69 83.1401 111.69 99.6801C111.69 120.66 96.0201 137.82 64.1001 137.82H0V9.8501ZM57.3301 59.1901C67.6601 59.1901 71.8201 53.8801 71.8201 46.9401C71.8201 39.0001 66.06 35.1101 57.04 35.1101H36.3899V59.1901H57.3201H57.3301ZM36.3999 112.62H55.5701C67.9001 112.62 73.1399 107.26 73.1399 98.1001C73.1399 90.0601 68.18 84.3701 56.26 84.3701H36.3999V112.61V112.62Z" fill="#202020"/>
<path d="M513.82 9.8501H551.06V61.8101C559.43 50.1301 578.33 26.7101 590.95 9.8501H635.36L588.34 62.2901L636.97 137.83H593.03L562.38 86.5001L551.06 98.1701V137.83H513.82V9.8501Z" fill="#202020"/>
<path d="M748 94.9401C743.48 120.74 724.55 137.82 690.69 137.82C650.28 137.82 630.76 110.55 630.76 74.7401C630.76 38.9301 650.06 9.8501 692.44 9.8501C728.7 9.8501 745.21 30.9301 747.64 52.2901H711.76C710.12 43.3801 704.97 35.2601 691.61 35.2601C674.04 35.2601 668.04 51.9401 668.04 73.4801C668.04 93.0401 673.03 112.36 692.01 112.36C706.39 112.36 710.41 101.92 711.95 94.9501H748.01L748 94.9401Z" fill="#202020"/>
<path d="M500.82 94.9401C496.3 120.74 477.37 137.82 443.51 137.82C403.1 137.82 383.58 110.55 383.58 74.7401C383.58 38.9301 402.88 9.8501 445.26 9.8501C481.52 9.8501 498.03 30.9301 500.46 52.2901H464.58C462.94 43.3801 457.79 35.2601 444.43 35.2601C426.86 35.2601 420.86 51.9401 420.86 73.4801C420.86 93.0401 425.85 112.36 444.83 112.36C459.21 112.36 463.23 101.92 464.77 94.9501H500.83L500.82 94.9401Z" fill="#202020"/>
<path d="M760.41 9.8501H798.31V58.1101H837.68V9.8501H875.65V138.82H837.68V86.1101H798.31V138.82H760.41V9.8501Z" fill="#202020"/>
<path d="M930.44 112.93L923.03 137.82H886.5L926.94 9.8501H975.49L1017.53 137.82H978.37L970.6 112.93H930.44ZM964.02 85.1401C958.01 65.0301 953.09 47.1501 950.19 34.6801H949.68C946.72 48.4701 941.83 66.7301 936.64 85.1401H964.03H964.02Z" fill="#202020"/>
<path d="M1064.8 9.8501V138.82H1026.9V9.8501H1064.8Z" fill="#202020"/>
<path d="M1083.72 137.82V9.8501H1128.6C1142.06 38.6701 1161.56 77.6101 1166.94 93.3801H1167.57C1166.15 80.0901 1165.82 57.4901 1165.82 37.0801V9.8501H1200V137.82H1157.25C1146.39 114.65 1123.24 66.6301 1117.23 49.7401H1116.73C1117.92 61.7801 1118.03 86.5501 1118.03 109.08V137.82H1083.73H1083.72Z" fill="#202020"/>
<path d="M0 183.62H20.8301V186.65H3.38989V198.48H19.75V201.51H3.38989V217.1H0V183.62Z" fill="#202020"/>
<path d="M53.6899 200.15C53.6899 209.32 48.68 217.58 38.26 217.58C28.64 217.58 23.1399 209.97 23.1399 200.36C23.1399 190.75 28.5901 183.14 38.6101 183.14C47.9001 183.14 53.6899 190.3 53.6899 200.14V200.15ZM26.76 200.22C26.76 207.71 30.7699 214.56 38.4199 214.56C46.6799 214.56 50.0701 207.79 50.0701 200.2C50.0701 192.61 46.23 186.16 38.48 186.16C30.33 186.16 26.76 192.84 26.76 200.21V200.22Z" fill="#202020"/>
<path d="M61.1799 201.87V217.11H57.75V183.63H70.24C76.97 183.63 80.54 187.26 80.54 192.5C80.54 196.8 78.02 199.51 74.53 200.36C77.65 201.14 79.99 203.29 79.99 209.04V210.4C79.99 212.73 79.8399 215.78 80.4299 217.12H77.04C76.42 215.68 76.52 213.03 76.52 210.04V209.25C76.52 204.08 75.02 201.89 68.79 201.89H61.1899L61.1799 201.87ZM61.1799 198.87H68.8999C74.4399 198.87 76.95 196.8 76.95 192.68C76.95 188.82 74.43 186.62 69.52 186.62H61.1799V198.87Z" fill="#202020"/>
<path d="M218.94 311.12H190.85C190.85 305.16 192.64 300.15 192.64 297.39C185.67 306.56 172.35 311.12 155.24 311.12C117.53 311.12 98.51 282.61 98.51 248.44C98.51 210.67 120.52 183.15 161.56 183.15C198.77 183.15 215.85 204.4 218.08 223.32H182.33C180.56 216.79 175.97 208.57 161.4 208.57C140.79 208.57 135.73 227.5 135.73 247.19C135.73 266.88 141.61 285.47 161.51 285.47C179.7 285.47 181.49 272.43 181.49 264.3H159.64V239.33H219.06L218.95 311.12H218.94Z" fill="#202020"/>
<path d="M513.82 183.14H568.79C609.52 183.14 633.15 208.91 633.15 245.72C633.15 282.53 610.14 311.12 568.21 311.12H513.82V183.15V183.14ZM551.36 283.96H565.73C586.09 283.96 594.42 269.69 594.42 245.72C594.42 224.53 586.64 210.3 566.17 210.3H551.36V283.95V283.96Z" fill="#202020"/>
<path d="M219.05 110.03H163.04V9.8501H125.43V137.82H219.05V110.03Z" fill="#202020"/>
<path d="M298.67 141.59L237.36 106.19V35.4L298.67 0L359.98 35.4V106.2L298.67 141.6V141.59ZM249.36 99.27L298.67 127.74L347.98 99.27V42.33L298.67 13.86L249.36 42.33V99.27Z" fill="#202020"/>
<path d="M298.67 79.9802L240.36 46.3202L246.36 35.9302L298.67 66.1302L350.98 35.9302L356.98 46.3202L298.67 79.9802Z" fill="#202020"/>
<path d="M304.67 72.9199H292.67V132.1H304.67V72.9199Z" fill="#202020"/>
<path d="M298.67 323.88L237.36 288.48V217.68L298.67 182.28L359.98 217.68V288.48L298.67 323.88ZM249.36 281.55L298.67 310.02L347.98 281.55V224.61L298.67 196.14L249.36 224.61V281.55Z" fill="#202020"/>
<path d="M298.67 262.27L240.36 228.6L246.36 218.21L298.67 248.41L350.98 218.21L356.98 228.6L298.67 262.27Z" fill="#202020"/>
<path d="M304.67 255.21H292.67V314.39H304.67V255.21Z" fill="#202020"/>
<path d="M433.75 323.88L372.44 288.48V217.68L433.75 182.28L495.06 217.68V288.48L433.75 323.88ZM384.44 281.55L433.75 310.02L483.06 281.55V224.61L433.75 196.14L384.44 224.61V281.55Z" fill="#202020"/>
<path d="M433.75 262.27L375.44 228.6L381.44 218.21L433.75 248.41L486.06 218.21L492.06 228.6L433.75 262.27Z" fill="#202020"/>
<path d="M439.75 255.21H427.75V314.39H439.75V255.21Z" fill="#202020"/>
<path d="M304.67 123.49H292.67V218.85H304.67V123.49Z" fill="#202020"/>
</svg>
