<svg width="812" height="688" viewBox="0 0 812 688" fill="none" xmlns="http://www.w3.org/2000/svg">
<line x1="498.091" y1="0.864624" x2="498.091" y2="64.6722" stroke="#F5E9DE" stroke-opacity="0.28" stroke-width="2"/>
<line x1="605.232" y1="21.3514" x2="605.232" y2="193.676" stroke="#F5E9DE" stroke-opacity="0.28" stroke-width="2"/>
<line x1="537.999" y1="80.6151" x2="537.999" y2="265.357" stroke="#F5E9DE" stroke-opacity="0.28" stroke-width="2"/>
<line x1="434.796" y1="411.974" x2="434.796" y2="528.271" stroke="#F5E9DE" stroke-opacity="0.28" stroke-width="2"/>
<line x1="122.175" y1="453.765" x2="122.175" y2="557.004" stroke="#F5E9DE" stroke-opacity="0.28" stroke-width="2"/>
<line x1="79.7949" y1="597.473" x2="79.7949" y2="665.684" stroke="#F5E9DE" stroke-opacity="0.28" stroke-width="2"/>
<line x1="697.637" y1="135.948" x2="697.637" y2="359.772" stroke="#F5E9DE" stroke-opacity="0.28" stroke-width="2"/>
<line x1="810.21" y1="252.811" x2="810.21" y2="453.077" stroke="#F5E9DE" stroke-opacity="0.28" stroke-width="2"/>
<line x1="559.393" y1="547.703" x2="559.393" y2="655.259" stroke="#F5E9DE" stroke-opacity="0.28" stroke-width="2"/>
<line x1="624.112" y1="509.51" x2="624.112" y2="621.674" stroke="#F5E9DE" stroke-opacity="0.28" stroke-width="2"/>
<line x1="250.099" y1="281.47" x2="250.099" y2="387.813" stroke="#F5E9DE" stroke-opacity="0.28" stroke-width="2"/>
<line x1="84.7188" y1="222.195" x2="84.7187" y2="457.354" stroke="#F5E9DE" stroke-opacity="0.28" stroke-width="2"/>
<line x1="48.9951" y1="418.569" x2="48.9951" y2="522.985" stroke="#F5E9DE" stroke-opacity="0.28" stroke-width="2"/>
<line x1="1.93506" y1="327.228" x2="1.93505" y2="470.777" stroke="#F5E9DE" stroke-opacity="0.28" stroke-width="2"/>
<line x1="114.348" y1="574.409" x2="114.348" y2="687.137" stroke="#F5E9DE" stroke-opacity="0.28" stroke-width="2"/>
<line x1="78.374" y1="191.415" x2="78.374" y2="475.823" stroke="#F5E9DE" stroke-opacity="0.28" stroke-width="2"/>
<line x1="206.463" y1="113.258" x2="206.463" y2="216.239" stroke="#F5E9DE" stroke-opacity="0.28" stroke-width="2"/>
<line x1="203.6" y1="35.1101" x2="203.6" y2="108.383" stroke="#F5E9DE" stroke-opacity="0.28" stroke-width="2"/>
<line x1="446.151" y1="5.97339" x2="446.151" y2="113.258" stroke="#F5E9DE" stroke-opacity="0.28" stroke-width="2"/>
<line x1="363.953" y1="54.9357" x2="363.953" y2="180.003" stroke="#F5E9DE" stroke-opacity="0.28" stroke-width="2"/>
</svg>
